<?xml version="1.0" standalone="no"?>
<!DOCTYPE svg PUBLIC "-//W3C//DTD SVG 20010904//EN"
 "http://www.w3.org/TR/2001/REC-SVG-20010904/DTD/svg10.dtd">
<svg version="1.0" xmlns="http://www.w3.org/2000/svg"
 width="492.000000pt" height="492.000000pt" viewBox="0 0 492.000000 492.000000"
 preserveAspectRatio="xMidYMid meet">

<g transform="translate(0.000000,492.000000) scale(0.100000,-0.100000)"
fill="#000000" stroke="none">
<path d="M2310 4123 l-31 -28 1 -1482 c0 -1079 -3 -1483 -11 -1483 -11 0 -377
261 -411 293 -17 16 -18 60 -18 1012 l0 995 -28 31 c-24 27 -36 32 -76 33 -42
1 -51 -3 -77 -32 l-29 -32 0 -915 c0 -642 -3 -915 -11 -915 -11 0 -356 246
-397 283 l-22 20 0 490 c0 474 -1 490 -20 517 -29 40 -78 55 -123 37 -70 -30
-67 -1 -67 -602 l0 -540 33 -37 c17 -21 183 -146 367 -279 184 -133 444 -321
578 -418 371 -270 358 -261 409 -261 36 0 50 6 74 29 l29 29 0 1481 c0 815 3
1481 6 1481 3 0 102 -69 220 -154 l214 -154 0 -1107 0 -1107 34 -34 c28 -28
42 -34 76 -34 34 0 48 6 76 34 l34 34 0 1021 c0 568 4 1021 9 1021 7 0 367
-256 414 -295 16 -14 17 -54 17 -591 l0 -576 35 -35 c32 -32 39 -35 78 -30 30
4 50 15 70 37 l27 30 0 623 c0 574 -2 624 -18 643 -9 12 -82 69 -162 126 -80
58 -278 201 -440 318 -850 616 -754 550 -796 550 -23 0 -44 -9 -64 -27z"/>
</g>
</svg>
